<mxfile host="app.diagrams.net" modified="2023-05-29T03:38:08.366Z" agent="Mozilla/5.0 (Windows NT 10.0; Win64; x64) AppleWebKit/537.36 (KHTML, like Gecko) Chrome/113.0.0.0 Safari/537.36" version="21.3.5" etag="PY72mYPiq-BpeO4d05KJ" type="github">
  <diagram name="Page-1" id="-asP85voL0j2yG1sR9bA">
    <mxGraphModel>
      <root>
        <mxCell id="0" />
        <mxCell id="1" parent="0" />
      </root>
    </mxGraphModel>
  </diagram>
</mxfile>
